<svg version="1.1" id="Layer_1" xmlns="http://www.w3.org/2000/svg" xmlns:xlink="http://www.w3.org/1999/xlink" x="0px" y="0px"
	 width="100%" viewBox="0 0 864 864" enable-background="new 0 0 864 864" xml:space="preserve">
<path fill="#FFFFFF" opacity="1.000000" stroke="none" 
	d="
M129.391495,737.746948 
	C110.175919,727.991028 99.240723,711.934387 92.904259,692.414124 
	C86.324104,672.143066 86.280296,651.252625 87.384613,630.193115 
	C88.196587,614.708679 89.764404,599.320923 92.091385,584.042969 
	C94.567879,567.783447 97.852623,551.637817 101.111000,535.508423 
	C108.525032,498.807983 118.226906,462.709991 129.438873,426.979279 
	C142.062149,386.750977 156.397797,347.208374 174.268707,308.993805 
	C189.613480,276.180969 207.105835,244.633881 228.826370,215.520004 
	C249.169067,188.252960 272.467499,164.369080 302.920837,148.238754 
	C321.921570,138.174561 342.036346,132.777573 363.484680,134.990417 
	C381.028595,136.800461 396.679840,144.120728 410.947815,154.556488 
	C434.624939,171.874191 451.311340,194.953995 465.638367,220.026840 
	C490.635925,263.773621 507.877655,310.827423 524.372620,358.189545 
	C530.829651,376.729675 537.091492,395.337738 543.466980,413.906372 
	C545.710327,420.440399 546.643860,420.860321 552.704651,417.819641 
	C568.694336,409.797668 585.299805,403.182983 602.728333,399.370117 
	C619.454407,395.710938 636.308899,394.609497 653.682861,397.295227 
	C681.384033,401.577362 704.948181,413.323212 725.233704,432.099365 
	C744.830261,450.237793 758.234314,472.467773 767.006287,497.582794 
	C777.192261,526.746399 780.913025,556.870239 778.961487,587.546692 
	C777.002869,618.335083 769.375549,647.417053 748.534180,671.462280 
	C725.306091,698.261108 693.125305,708.827759 658.005005,696.932800 
	C627.865601,686.724731 603.859741,668.091309 582.896667,644.962646 
	C555.755493,615.017761 536.355042,580.163269 519.506775,543.740051 
	C517.620911,539.663208 515.540283,535.663269 513.899109,531.490356 
	C512.409180,527.702209 510.480774,527.626465 507.489685,529.798950 
	C492.258789,540.861389 477.400696,552.408752 462.590485,564.022705 
	C418.027405,598.968506 374.247467,634.934753 327.962219,667.640503 
	C293.492493,691.997253 258.027283,714.712219 219.288177,731.813904 
	C202.315079,739.306763 184.743011,745.265259 166.018753,745.855652 
	C153.425827,746.252747 141.229172,743.285645 129.391495,737.746948 
M329.015564,578.497314 
	C331.900330,576.237915 334.782898,573.975708 337.670258,571.719666 
	C368.780121,547.411926 399.895111,523.110840 430.999268,498.795837 
	C447.279663,486.068878 463.996185,473.930847 480.903931,462.061096 
	C484.067505,459.840149 484.983398,457.787384 483.226471,454.207855 
	C481.476105,450.641693 480.197296,446.832092 478.863434,443.075378 
	C467.396698,410.781250 456.628571,378.238098 444.344086,346.235596 
	C432.339813,314.963043 419.557770,284.038391 402.456146,255.118423 
	C393.341705,239.705246 383.208405,225.055115 368.589996,214.189941 
	C361.076843,208.605774 353.250366,205.744461 343.462402,208.921585 
	C326.516296,214.422241 313.426300,225.286774 301.424469,237.643219 
	C282.596008,257.027924 268.091370,279.577881 255.276428,303.233978 
	C240.420761,330.657257 228.182755,359.260376 217.263687,388.451752 
	C205.942505,418.718048 196.736435,449.652496 188.305435,480.811829 
	C181.750076,505.039062 175.654739,529.397156 170.709229,554.018555 
	C168.155731,566.731201 165.302704,579.410217 163.441544,592.228760 
	C161.172821,607.854736 159.003937,623.535339 158.535461,639.359192 
	C158.254715,648.841187 158.191254,658.397278 160.829376,667.587646 
	C162.837296,674.582703 166.557465,676.411072 173.402283,674.442566 
	C179.151428,672.789062 184.792770,670.819702 190.276459,668.324829 
	C209.581329,659.541870 227.890228,648.974854 245.819702,637.719360 
	C274.494354,619.718323 301.442780,599.282593 329.015564,578.497314 
M613.422485,469.950134 
	C601.614502,472.618469 590.782104,477.747040 580.087158,483.207977 
	C572.489441,487.087463 572.318848,487.230865 575.540161,494.946411 
	C582.855896,512.468567 590.953552,529.611511 600.405945,546.112671 
	C612.111572,566.547363 624.566711,586.470398 641.198669,603.315613 
	C650.327393,612.561401 660.001953,621.597168 672.562927,625.953064 
	C687.405212,631.099976 695.139282,627.736389 701.699829,614.478699 
	C705.127014,607.552917 707.554688,600.222229 708.206421,592.596680 
	C711.332153,556.020508 703.358521,522.379883 680.332153,493.160339 
	C663.322266,471.575470 641.154541,463.756836 613.422485,469.950134 
z"/>
</svg>